<?xml version="1.0" encoding="iso-8859-1"?>
<!-- Uploaded to: SVG Repo, www.svgrepo.com, Generator: SVG Repo Mixer Tools -->
<svg height="800px" width="800px" version="1.1" id="Layer_1" xmlns="http://www.w3.org/2000/svg" xmlns:xlink="http://www.w3.org/1999/xlink" 
	 viewBox="0 0 512 512" xml:space="preserve">
<polygon style="fill:#A0F6FA;" points="503.83,8.17 449.91,8.17 279.109,178.97 271.406,217.486 229.039,229.039 137.138,320.941 
	156.395,386.416 "/>
<polygon style="fill:#78E3EC;" points="503.83,8.17 306.069,205.931 279.109,178.97 232.891,225.188 259.852,252.148 
	164.098,347.902 137.138,320.941 106.326,351.753 160.247,405.674 503.83,62.09 "/>
<path style="fill:#E02E00;" d="M198.762,428.783l-46.217-46.217l-19.258,3.852l-3.852,19.258l23.109,23.109
	c-12.763,12.763-12.763,33.455,0,46.217c12.763,12.763,33.454,12.763,46.217,0C211.525,462.238,211.525,441.546,198.762,428.783z"/>
<path style="fill:#FF4719;" d="M83.217,313.238c-12.763-12.763-33.455-12.763-46.217,0c-12.763,12.763-12.763,33.455,0,46.217
	c12.763,12.763,33.455,12.763,46.217,0l23.109,23.109l-73.08,73.08l23.109,23.109l96.19-96.19L83.217,313.238z"/>
<path style="fill:#E02E00;" d="M63.96,448.04l-30.812,15.406l-15.406,30.812c12.763,12.763,33.455,12.763,46.217,0
	C76.723,481.495,76.723,460.803,63.96,448.04z"/>
<path style="fill:#FF4719;" d="M17.742,448.04c-12.763,12.763-12.763,33.455,0,46.217L63.96,448.04
	C51.197,435.277,30.504,435.277,17.742,448.04z"/>
<polygon style="fill:#D0FBFD;" points="8.17,8.17 8.17,62.09 320.941,374.862 386.416,355.605 "/>
<polygon style="fill:#A0F6FA;" points="8.17,8.17 347.902,347.902 320.941,374.862 351.753,405.674 405.674,351.753 62.091,8.17 "/>
<path style="fill:#FF4719;" d="M428.783,313.238l-46.217,46.217l3.852,19.258l19.258,3.852l23.109-23.109
	c12.763,12.763,33.455,12.763,46.217,0c12.763-12.763,12.763-33.454,0-46.217C462.238,300.475,441.546,300.475,428.783,313.238z"/>
<path style="fill:#FF754F;" d="M382.565,405.674l-23.109,23.109c12.763,12.763,12.763,33.455,0,46.217
	c-12.763,12.763-33.455,12.763-46.217,0c-12.763-12.763-12.763-33.455,0-46.217l69.327-69.327l96.19,96.19l-23.109,23.109
	L382.565,405.674z"/>
<path style="fill:#FF4719;" d="M448.04,448.04l15.406,30.811l30.812,15.406c12.763-12.763,12.763-33.455,0-46.217
	C481.495,435.277,460.803,435.277,448.04,448.04z"/>
<path style="fill:#FF754F;" d="M448.04,494.258c12.763,12.763,33.455,12.763,46.217,0L448.04,448.04
	C435.277,460.803,435.277,481.496,448.04,494.258z"/>
<circle cx="60.111" cy="336.351" r="8.17"/>
<circle cx="175.649" cy="451.889" r="8.17"/>
<circle cx="451.889" cy="336.351" r="8.17"/>
<circle cx="336.351" cy="451.889" r="8.17"/>
<path d="M509.608,67.868c1.532-1.533,2.392-3.61,2.392-5.778V8.17c0-4.513-3.657-8.17-8.17-8.17h-53.921
	c-2.167,0-4.244,0.861-5.778,2.392L256,190.524L67.868,2.392C66.336,0.861,64.257,0,62.09,0H8.17C3.657,0,0,3.657,0,8.17v53.92
	c0,2.167,0.861,4.244,2.392,5.778L190.525,256l-59.164,59.164c-3.191,3.192-3.191,8.364,0,11.555
	c1.596,1.595,3.687,2.392,5.778,2.392s4.182-0.797,5.778-2.392l59.164-59.164l15.405,15.405l-59.164,59.164
	c-3.191,3.192-3.191,8.364,0,11.555c1.596,1.595,3.687,2.392,5.778,2.392c2.09,0,4.182-0.797,5.778-2.392l59.164-59.164
	l86.124,86.124c1.596,1.595,3.688,2.392,5.778,2.392c2.09,0,4.182-0.797,5.778-2.392c3.191-3.192,3.191-8.364,0-11.555L16.34,58.707
	V16.34h42.366L386.416,344.05l-78.956,78.956c-15.928,15.928-15.928,41.845,0,57.772c7.965,7.964,18.425,11.946,28.888,11.946
	c10.461,0,20.921-3.982,28.887-11.946c7.715-7.716,11.964-17.974,11.964-28.887c0-8.135-2.363-15.909-6.763-22.535l12.129-12.13
	l48.16,48.161c-1.735,12.287,2.109,25.218,11.539,34.647c7.716,7.715,17.974,11.964,28.887,11.964s21.171-4.25,28.887-11.964
	c15.928-15.928,15.928-41.845,0-57.772c-7.717-7.715-17.976-11.964-28.888-11.964c-1.951,0-3.88,0.142-5.778,0.409l-48.143-48.142
	l12.13-12.129c6.626,4.4,14.399,6.763,22.535,6.763c10.912,0,21.171-4.25,28.887-11.964c15.928-15.929,15.928-41.845,0-57.773
	c-15.928-15.928-41.845-15.928-57.772,0l-25.034,25.034L321.476,256L509.608,67.868z M488.48,453.818
	c9.557,9.556,9.557,25.105,0,34.661c-4.629,4.63-10.784,7.18-17.331,7.18c-6.547,0-12.702-2.55-17.331-7.18
	c-9.557-9.556-9.557-25.105,0-34.661c4.629-4.63,10.784-7.18,17.331-7.18C477.696,446.638,483.851,449.188,488.48,453.818z
	 M434.561,319.016c9.555-9.557,25.107-9.557,34.661,0c9.557,9.556,9.557,25.107,0,34.662c-4.629,4.63-10.784,7.18-17.331,7.18
	c-6.547,0-12.702-2.55-17.331-7.18c-3.191-3.189-8.364-3.191-11.554,0l-23.11,23.109c-1.533,1.533-2.393,3.61-2.393,5.778
	s0.861,4.244,2.392,5.778l48.721,48.721c-2.262,1.501-4.39,3.237-6.353,5.2c-1.977,1.978-3.709,4.11-5.195,6.358l-48.725-48.725
	c-1.533-1.532-3.61-2.392-5.778-2.392s-4.244,0.861-5.778,2.393l-23.109,23.11c-3.191,3.191-3.191,8.363,0,11.554
	c4.63,4.629,7.18,10.784,7.18,17.331c0,6.547-2.55,12.702-7.18,17.331c-9.555,9.556-25.107,9.558-34.662,0
	c-9.557-9.556-9.557-25.105,0-34.661L434.561,319.016z M453.292,16.34h42.367v42.366L309.921,244.444l-15.406-15.405L482.647,40.909
	c3.191-3.192,3.191-8.364,0-11.555c-3.191-3.189-8.363-3.191-11.555,0L282.96,217.483l-15.405-15.405L453.292,16.34z"/>
<path d="M227.113,327.252l-59.164,59.164L88.993,307.46c-15.928-15.928-41.845-15.928-57.772,0
	c-15.928,15.929-15.928,41.845,0,57.773c7.716,7.715,17.974,11.964,28.887,11.964c8.135,0,15.909-2.363,22.535-6.763l12.13,12.129
	l-48.143,48.142c-1.898-0.267-3.827-0.409-5.778-0.409c-10.912,0-21.171,4.25-28.887,11.964c-15.928,15.928-15.928,41.845,0,57.772
	C19.68,507.75,29.939,512,40.851,512s21.171-4.25,28.887-11.964c9.43-9.43,13.274-22.36,11.539-34.647l48.16-48.161l12.129,12.13
	c-4.4,6.627-6.763,14.399-6.763,22.535c0,10.912,4.25,21.171,11.964,28.887c7.965,7.964,18.425,11.946,28.887,11.946
	c10.462,0,20.922-3.982,28.888-11.946c7.715-7.716,11.964-17.974,11.964-28.887s-4.25-21.171-11.964-28.887l-25.034-25.034
	l59.164-59.164c3.191-3.192,3.191-8.364,0-11.555C235.478,324.062,230.305,324.062,227.113,327.252z M58.182,488.48
	c-4.629,4.63-10.784,7.18-17.331,7.18s-12.702-2.55-17.331-7.18c-9.557-9.556-9.557-25.105,0-34.661
	c4.629-4.63,10.784-7.18,17.331-7.18s12.702,2.55,17.331,7.18C67.74,463.374,67.74,478.924,58.182,488.48z M200.164,451.891
	c0,6.547-2.55,12.702-7.18,17.331c-9.556,9.558-25.108,9.556-34.663,0c-4.629-4.629-7.179-10.784-7.179-17.331
	c0-6.547,2.55-12.702,7.18-17.331c3.191-3.192,3.191-8.364,0-11.554l-23.109-23.11c-1.533-1.533-3.61-2.393-5.778-2.393
	c-2.168,0-4.244,0.861-5.778,2.392l-48.724,48.725c-1.487-2.247-3.218-4.38-5.195-6.358c-1.963-1.963-4.093-3.698-6.353-5.2
	l48.721-48.721c1.532-1.533,2.392-3.61,2.392-5.778s-0.861-4.244-2.393-5.778l-23.11-23.109c-3.19-3.19-8.363-3.19-11.554,0
	c-4.629,4.63-10.784,7.18-17.331,7.18s-12.702-2.55-17.331-7.18c-9.557-9.556-9.557-25.107,0-34.662
	c9.555-9.557,25.107-9.557,34.661,0l84.726,84.725c0.015,0.015,30.82,30.82,30.82,30.82
	C197.613,439.189,200.164,445.345,200.164,451.891z"/>
<path d="M353.68,342.125L40.909,29.353c-3.192-3.19-8.364-3.19-11.555,0c-3.191,3.192-3.191,8.364,0,11.555L342.125,353.68
	c1.596,1.595,3.688,2.392,5.778,2.392c2.09,0,4.182-0.797,5.778-2.392C356.871,350.488,356.871,345.316,353.68,342.125z"/>
</svg>