<?xml version="1.0" encoding="iso-8859-1"?>
<!-- Uploaded to: SVG Repo, www.svgrepo.com, Generator: SVG Repo Mixer Tools -->
<svg height="800px" width="800px" version="1.1" id="Layer_1" xmlns="http://www.w3.org/2000/svg" xmlns:xlink="http://www.w3.org/1999/xlink" 
	 viewBox="0 0 512.853 512.853" xml:space="preserve">
<g transform="translate(1 1)">
	<path style="fill:#FFE100;" d="M364.841,502.467h21.333c14.507,0,21.333-9.387,21.333-25.6v-34.133
		c23.893-31.573,25.6-34.133,25.6-87.04c0-21.333,7.68-43.52,13.653-64L477.481,191c4.267-12.8-0.853-27.307-11.947-34.133
		c-4.267-2.56-10.24-4.267-15.36-4.267c-12.8,0-21.333,8.533-27.307,17.92c-6.827,11.947-49.493,84.48-49.493,84.48"/>
	<path style="fill:#FFA800;" d="M439.934,156.867c-4.267-2.56-10.24-4.267-15.36-4.267c-11.947,0-21.333,8.533-27.307,17.92
		c-6.827,11.947-49.493,84.48-49.493,84.48l46.933-200.533c3.413-19.627-11.947-30.72-29.867-29.867
		c-16.213,0-25.6,12.8-29.867,29.867l-46.933,183.467V41.667V37.4c0-16.213-13.653-29.867-29.867-29.867
		c-16.213,0-29.867,13.653-29.867,29.867v194.56L181.374,71.533c-5.12-15.36-11.093-29.013-29.867-29.867
		c-11.093,0-20.48,5.973-25.6,14.507c-4.267,6.827-4.267,14.507-2.56,22.187l49.493,202.24
		c-17.067-42.667-58.027-73.387-86.187-88.747c-23.04-12.8-70.827,14.507-31.573,44.373c27.307,21.333,57.173,75.093,66.56,104.96
		v-0.853c15.36,72.533,64,102.4,64,102.4v34.133c0,16.213,11.947,25.6,25.6,25.6h149.333c14.507,0,21.333-9.387,21.333-25.6v-34.133
		c23.893-31.573,25.6-34.133,25.6-87.04c0-21.333,7.68-43.52,13.653-64L451.881,191C456.148,178.2,451.028,163.693,439.934,156.867"
		/>
	<path style="fill:#FFE100;" d="M414.334,156.867c-4.267-2.56,26.453-4.267-6.827-4.267c64,0-11.093,8.533-17.067,17.92
		c-6.827,11.093-42.667,84.48-42.667,84.48l42.667-200.533c3.413-19.627,5.12-30.72-12.8-29.867c-16.213,0-34.133,12.8-38.4,29.867
		l-51.2,183.467V41.667V37.4c0-16.213-13.653-29.867-29.867-29.867c-16.213,0-29.867,13.653-29.867,29.867v194.56L181.374,71.533
		c-5.12-15.36-11.093-29.013-29.867-29.867c-11.093,0-20.48,5.973-25.6,14.507c-4.267,6.827-4.267,14.507-2.56,22.187l49.493,202.24
		c-17.067-42.667-58.027-73.387-86.187-88.747c-23.04-12.8-70.827,14.507-31.573,44.373c27.307,21.333,57.173,75.093,66.56,104.96
		v-0.853c15.36,72.533,64,102.4,64,102.4v34.133c0,16.213,11.947,25.6,25.6,25.6h123.733c14.507,0,21.333-9.387,21.333-25.6v-34.133
		c23.893-31.573,25.6-34.133,25.6-87.04c0-21.333,7.68-43.52,13.653-64L426.281,191C430.548,178.2,425.428,163.693,414.334,156.867"
		/>
	<g>
		<path style="fill:#FFFFFF;" d="M161.748,248.173c12.8,11.093,23.893,22.187,31.573,32.427L151.508,77.507
			c-0.853-5.973-0.853-11.947,0.853-17.067c4.267-9.387,0.853-16.213,7.68-17.92c-0.853-0.853-2.56-0.853-5.12-0.853
			c-11.947,0-23.04,7.68-27.307,17.92c-2.56,5.12-2.56,11.947-0.853,17.067L161.748,248.173z"/>
		<path style="fill:#FFFFFF;" d="M204.414,476.867v-34.133c0,0-46.08-27.307-57.173-102.4c0,0-4.267-53.76-61.44-104.107
			c-43.52-38.4,6.827-42.667,31.573-23.893l0,0c0,0,0,0.853,0.853,0.853c-9.387-9.387-18.773-17.067-26.453-21.333l0,0
			c-24.747-18.773-75.093,6.827-31.573,44.373c57.173,50.347,61.44,104.107,61.44,104.107c11.093,75.093,57.173,102.4,57.173,102.4
			v34.133c0,17.067,9.387,25.6,28.16,25.6h24.747C213.801,502.467,204.414,493.933,204.414,476.867"/>
	</g>
	<path d="M211.241,451.267h-25.6c-5.12,0-8.533-3.413-8.533-8.533c0-5.12,3.413-8.533,8.533-8.533h25.6
		c5.12,0,8.533,3.413,8.533,8.533C219.774,447.853,216.361,451.267,211.241,451.267z"/>
	<path d="M381.908,451.267h-17.067c-5.12,0-8.533-3.413-8.533-8.533c0-5.12,3.413-8.533,8.533-8.533h17.067
		c5.12,0,8.533,3.413,8.533,8.533C390.441,447.853,387.028,451.267,381.908,451.267z"/>
	<path d="M198.441,323.267c-1.707,0-3.413-0.853-4.267-1.707c-17.92-11.947-23.893-26.453-29.013-38.4
		c-1.707-4.267,0-9.387,5.12-11.093c4.267-1.707,9.387,0,11.093,5.12c4.267,11.093,8.533,21.333,22.187,29.867
		c4.267,2.56,5.12,7.68,2.56,11.947C203.561,321.56,201.001,323.267,198.441,323.267z"/>
	<path d="M223.188,256.707c-4.267,0-7.68-2.56-8.533-6.827c-0.853-4.267,1.707-7.68,5.12-9.387c0.853-1.707,0.853-4.267,0-8.533
		s1.707-9.387,6.827-10.24c4.267-0.853,9.387,1.707,10.24,6.827c2.56,14.507-1.707,26.453-11.947,28.16
		C224.041,256.707,224.041,256.707,223.188,256.707z"/>
	<path d="M239.401,253.293c-8.533,0-16.213-8.533-18.773-22.187c-0.853-4.267,1.707-9.387,6.827-10.24
		c4.267-0.853,9.387,1.707,10.24,6.827c0.853,4.267,2.56,6.827,3.413,8.533c4.267,0,7.68,2.56,8.533,6.827s-1.707,9.387-6.827,10.24
		C241.108,253.293,240.254,253.293,239.401,253.293z"/>
	<path d="M279.508,263.533c-5.12,0-8.533-3.413-8.533-8.533c0-4.267,2.56-7.68,6.827-8.533c0.853-0.853,1.707-4.267,1.707-8.533
		c0-5.12,3.413-8.533,8.533-8.533c5.12,0,8.533,3.413,8.533,8.533C296.574,252.44,289.748,263.533,279.508,263.533z"/>
	<path d="M296.574,263.533c-10.24,0-17.067-11.093-17.067-25.6c0-5.12,3.413-8.533,8.533-8.533c5.12,0,8.533,3.413,8.533,8.533
		c0,4.267,0.853,7.68,1.707,8.533c3.413,0.853,6.827,4.267,6.827,8.533C305.108,260.12,301.694,263.533,296.574,263.533z
		 M299.134,247.32L299.134,247.32L299.134,247.32z"/>
	<path d="M336.681,278.893c-0.853,0-1.707,0-2.56,0c-4.267-0.853-7.68-5.12-6.827-10.24c0.853-4.267,4.267-6.827,8.533-6.827
		c0.853-0.853,2.56-3.413,3.413-8.533c0.853-4.267,5.12-7.68,10.24-6.827c4.267,0.853,7.68,5.12,6.827,10.24
		c-1.707,8.533-5.973,16.213-11.093,19.627C342.654,278.04,339.241,278.893,336.681,278.893z"/>
	<path d="M352.894,282.307c-0.853,0-0.853,0-1.707,0c-9.387-1.707-14.507-13.653-11.947-28.16c0.853-4.267,5.12-7.68,10.24-6.827
		c4.267,0.853,7.68,5.12,6.827,10.24c-0.853,4.267,0,7.68,0,8.533c3.413,1.707,5.973,5.12,5.12,9.387
		C360.574,278.893,357.161,282.307,352.894,282.307z M356.308,266.093L356.308,266.093L356.308,266.093z"/>
	<path d="M360.574,511h-46.933c-5.12,0-8.533-3.413-8.533-8.533c0-5.12,3.413-8.533,8.533-8.533h46.933c4.267,0,12.8,0,12.8-17.067
		v-34.133c0-1.707,0.853-3.413,1.707-5.12c23.04-30.72,23.893-31.573,23.893-81.92c0-20.48,5.973-39.253,11.947-58.027l2.56-7.68
		l30.72-100.693c2.56-9.387-0.853-19.627-8.533-24.747c-3.413-2.56-6.827-3.413-11.093-3.413c-5.12,0-11.947,1.707-19.627,14.507
		c-6.827,11.093-49.493,83.627-49.493,83.627c-2.56,3.413-6.827,5.12-10.24,3.413c-4.267-1.707-5.973-5.973-5.12-10.24
		l46.933-200.533c0.853-5.12,0-9.387-2.56-12.8c-4.267-3.413-11.947-5.973-19.627-5.973c-10.24,0-17.92,7.68-22.187,23.04
		l-46.08,183.467c-0.853,4.267-5.12,6.827-9.387,5.973c-4.267-0.853-7.68-4.267-7.68-8.533V37.4
		c0-11.947-9.387-21.333-21.333-21.333c-11.947,0-21.333,9.387-21.333,21.333v194.56c0,4.267-3.413,7.68-7.68,8.533
		c-4.267,0.853-8.533-1.707-9.387-5.973L172.841,74.093c-5.12-16.213-9.387-23.893-21.333-23.893c-7.68,0-14.507,4.267-17.92,10.24
		c-2.56,4.267-2.56,9.387-1.707,15.36l49.493,202.24c0.853,4.267-1.707,8.533-5.973,10.24s-8.533-0.853-10.24-5.12
		c-19.627-46.933-67.413-76.8-81.92-84.48c-9.387-5.12-26.453-0.853-31.573,8.533c-5.12,7.68,2.56,16.213,10.24,22.187
		c29.013,22.187,58.88,75.947,68.267,106.667c0,0.853,0.853,1.707,0.853,2.56c14.507,68.267,59.733,96.427,59.733,97.28
		c2.56,1.707,4.267,4.267,4.267,7.68v34.133c0,15.36,12.8,17.067,17.067,17.067h34.133c5.12,0,8.533,3.413,8.533,8.533
		c0,5.12-3.413,8.533-8.533,8.533h-34.133c-20.48,0-34.133-13.653-34.133-34.133v-29.867c-12.8-9.387-48.64-40.107-63.147-102.4
		c0,0,0,0,0-0.853c-10.24-31.573-40.107-81.92-64.853-101.547c-26.453-20.48-17.067-40.107-13.653-45.227
		c11.093-16.213,37.547-23.04,54.613-13.653c10.24,5.973,38.4,22.187,61.44,48.64L114.814,80.067
		c-2.56-10.24-0.853-19.627,3.413-28.16c6.827-11.093,19.627-18.773,33.28-18.773c26.453,0.853,33.28,22.187,38.4,35.84
		l29.867,103.253V37.4c0-21.333,17.067-38.4,38.4-38.4s38.4,17.067,38.4,38.4v133.12l29.867-117.76
		c5.973-23.893,19.627-36.693,38.4-36.693c12.8,0,24.747,4.267,31.573,12.8c4.267,5.12,9.387,13.653,6.827,27.307l-34.133,145.92
		c9.387-16.213,18.773-30.72,21.333-35.84c9.387-14.507,20.48-22.187,34.133-22.187c6.827,0,13.653,1.707,19.627,5.12
		c14.507,8.533,21.333,27.307,16.213,44.373l-33.28,108.373c-5.12,17.92-11.093,35.84-11.093,52.907
		c0,52.907-2.56,58.88-25.6,90.453v31.573C390.441,498.2,379.348,511,360.574,511z"/>
	<path d="M288.041,502.467c0-5.12-3.413-8.533-8.533-8.533s-8.533,3.413-8.533,8.533c0,5.12,3.413,8.533,8.533,8.533
		S288.041,507.587,288.041,502.467"/>
</g>
</svg>