<?xml version="1.0" encoding="iso-8859-1"?>
<!-- Uploaded to: SVG Repo, www.svgrepo.com, Generator: SVG Repo Mixer Tools -->
<svg height="800px" width="800px" version="1.1" id="Layer_1" xmlns="http://www.w3.org/2000/svg" xmlns:xlink="http://www.w3.org/1999/xlink" 
	 viewBox="0 0 512 512" xml:space="preserve">
<g transform="translate(1 1)">
	<g>
		<path style="fill:#FFE100;" d="M447,102.253c-1.707-19.627-18.773-34.987-38.4-34.987c-4.267,0-8.533,0.853-12.8,2.56
			c13.653,5.12,23.893,17.92,25.6,33.28l0,0v3.413v68.267v111.787c0,101.547-9.387,95.573-42.667,139.947v44.373
			c0,15.36,13.653,29.013,4.267,31.573c14.507-2.56,21.333-16.213,21.333-31.573v-45.227C437.613,381.293,447,387.267,447,285.72
			V173.933v-68.267V102.253L447,102.253z"/>
		<path style="fill:#FFE100;" d="M395.8,102.253c-1.707-19.627-18.773-34.987-38.4-34.987c-17.067,0-5.973,11.093-11.093,26.453
			H344.6V71.533c0-21.333-17.067-38.4-38.4-38.4s-38.4,17.067-38.4,38.4v-25.6c0-21.333-17.067-38.4-38.4-38.4
			s-29.867,17.067-29.867,38.4V63c0-21.333-12.8-38.4-34.133-38.4S139.8,41.667,139.8,63v3.413v120.32
			c0,16.213-42.667,42.667-42.667,88.747v39.253l0,0c0,87.04,51.2,110.933,51.2,110.933v42.667c0,18.773,15.36,34.133,34.133,34.133
			h170.667c17.067,0,0-15.36,0-32.427v-44.373c33.28-44.373,42.667-38.4,42.667-139.947V173.933v-68.267V102.253L395.8,102.253z"/>
	</g>
	<g>
		<path style="fill:#FDCC00;" d="M114.2,195.267V63c0-21.333,17.067-38.4,38.4-38.4l0,0c21.333,0,38.4,17.067,38.4,38.4v64"/>
		<path style="fill:#FDCC00;" d="M383,212.333L383,212.333c-21.333,0-38.4-17.067-38.4-38.4v-68.267c0-21.333,17.067-38.4,38.4-38.4
			l0,0c21.333,0,38.4,17.067,38.4,38.4v68.267C421.4,195.267,404.333,212.333,383,212.333"/>
	</g>
	<path style="fill:#FFA800;" d="M421.4,102.253c-1.707-19.627-18.773-34.987-38.4-34.987c-4.267,0-8.533,0.853-12.8,2.56
		c13.653,5.12,23.893,17.92,25.6,33.28l0,0v3.413v68.267v111.787c0,101.547-9.387,95.573-42.667,139.947v44.373
		c0,15.36,13.653,29.013,4.267,31.573c14.507-2.56,21.333-16.213,21.333-31.573v-45.227c33.28-44.373,42.667-38.4,42.667-139.947
		V173.933v-68.267V102.253L421.4,102.253z"/>
	<path style="fill:#FFFFFF;" d="M148.333,468.333v-42.667c0,0-51.2-23.893-51.2-110.933l0,0V275.48
		c0-46.08,42.667-72.533,42.667-88.747V66.413V63c0-18.773,3.413-34.133,19.627-37.547c-2.56-0.853-4.267-0.853-6.827-0.853
		c-21.333,0-38.4,17.067-38.4,38.4v3.413v120.32c0,16.213-42.667,42.667-42.667,88.747v39.253l0,0
		c0,87.04,51.2,110.933,51.2,110.933v42.667c0,18.773,15.36,34.133,34.133,34.133h25.6
		C163.693,502.467,148.333,487.107,148.333,468.333"/>
	<g>
		<path style="fill:#FDCC00;" d="M306.2,220.867L306.2,220.867c-21.333,0-38.4-17.067-38.4-38.4V71.533
			c0-21.333,17.067-38.4,38.4-38.4l0,0c21.333,0,38.4,17.067,38.4,38.4v110.933C344.6,203.8,327.533,220.867,306.2,220.867"/>
		<path style="fill:#FDCC00;" d="M229.4,7.533c-21.333,0-38.4,17.067-38.4,38.4v87.04c24.747-5.12,40.96,34.133,29.013,55.467
			c-5.12,8.533-11.947,23.893-20.48,32.427c6.827,8.533,17.92,8.533,29.867,8.533c21.333,0,38.4-17.067,38.4-38.4V45.933
			C267.8,24.6,250.733,7.533,229.4,7.533"/>
	</g>
	<path d="M156.867,451.267c-0.853,0-2.56,0-3.413-0.853c0,0-17.92-8.533-34.133-17.067c-4.267-2.56-5.973-7.68-3.413-11.947
		c1.707-4.267,6.827-5.12,11.093-3.413c16.213,8.533,33.28,17.067,33.28,17.067c4.267,1.707,5.973,6.827,4.267,11.093
		C162.84,449.56,160.28,451.267,156.867,451.267z"/>
	<path d="M378.733,434.2h-25.6c-5.12,0-8.533-3.413-8.533-8.533s3.413-8.533,8.533-8.533h25.6c5.12,0,8.533,3.413,8.533,8.533
		S383.853,434.2,378.733,434.2z"/>
	<path d="M139.8,272.067c-3.413,0-6.827-2.56-8.533-5.973c-0.853-4.267,1.707-9.387,5.973-10.24
		c23.04-5.973,55.467-36.693,75.093-71.68c6.827-11.947,1.707-33.28-9.387-40.96c-10.24-6.827-21.333,2.56-29.013,11.947
		c-15.36,18.773-34.133,34.987-55.467,47.787c-4.267,1.707-9.387,0.853-11.947-3.413c-1.707-4.267-0.853-9.387,3.413-11.947
		c19.627-11.947,36.693-26.453,50.347-43.52c24.747-30.72,46.08-19.627,52.053-15.36c18.773,12.8,25.6,44.373,14.507,63.147
		c-18.773,33.28-53.76,70.827-85.333,79.36C141.507,272.067,140.653,272.067,139.8,272.067z"/>
	<path d="M306.2,229.4c-25.6,0-46.933-21.333-46.933-46.933V71.533c0-25.6,21.333-46.933,46.933-46.933s46.933,21.333,46.933,46.933
		v110.933C353.133,208.067,331.8,229.4,306.2,229.4z M306.2,41.667c-16.213,0-29.867,13.653-29.867,29.867v110.933
		c0,16.213,13.653,29.867,29.867,29.867c16.213,0,29.867-13.653,29.867-29.867V71.533C336.067,55.32,322.413,41.667,306.2,41.667z"
		/>
	<path d="M383,220.867c-25.6,0-46.933-21.333-46.933-46.933v-68.267c0-25.6,21.333-46.933,46.933-46.933
		s46.933,21.333,46.933,46.933v68.267C429.933,199.533,408.6,220.867,383,220.867z M383,75.8c-16.213,0-29.867,13.653-29.867,29.867
		v68.267c0,16.213,13.653,29.867,29.867,29.867s29.867-13.653,29.867-29.867v-68.267C412.867,89.453,399.213,75.8,383,75.8z"/>
	<path d="M228.547,237.933c-12.8,0-26.453,0-35.84-11.947c-2.56-3.413-2.56-7.68,0-11.093c5.973-5.973,11.093-16.213,16.213-24.747
		c0.853-2.56,2.56-4.267,3.413-6.827c5.12-9.387,3.413-24.747-4.267-34.987c-3.413-4.267-8.533-9.387-16.213-8.533
		c-2.56,0.853-5.12,0-6.827-1.707s-3.413-4.267-3.413-6.827V45.933c0-25.6,21.333-46.933,46.933-46.933s47.787,21.333,47.787,46.933
		V191C276.333,216.6,255,237.933,228.547,237.933C229.4,237.933,228.547,237.933,228.547,237.933z M211.48,219.16
		c4.267,1.707,9.387,1.707,17.067,1.707c17.067,0,30.72-13.653,30.72-29.867V45.933c0-16.213-13.653-29.867-29.867-29.867
		s-29.867,13.653-29.867,29.867v77.653c8.533,1.707,17.067,6.827,23.04,15.36c11.093,16.213,13.653,38.4,5.12,52.907
		c-0.853,1.707-2.56,4.267-3.413,5.973C220.867,204.653,216.6,212.333,211.48,219.16z"/>
	<path d="M353.133,511H267.8c-5.12,0-8.533-3.413-8.533-8.533c0-5.12,3.413-8.533,8.533-8.533h85.333
		c12.8,0,17.067-12.8,17.067-23.893v-44.373c0-1.707,0.853-3.413,1.707-5.12c5.12-6.827,9.387-11.947,13.653-17.067
		c21.333-26.453,27.307-34.133,27.307-117.76V104.813c0-0.853,0-0.853,0-1.707C411.16,87.747,398.36,75.8,383,75.8
		c-12.8,0-23.893,8.533-28.16,20.48c-0.853,4.267-5.12,5.973-9.387,5.973h-1.707c-4.267-0.853-7.68-4.267-7.68-8.533V71.533
		c0-16.213-13.653-29.867-29.867-29.867c-16.213,0-29.867,13.653-29.867,29.867c0,5.12-3.413,8.533-8.533,8.533
		s-8.533-3.413-8.533-8.533v-25.6c0-16.213-13.653-29.867-29.867-29.867s-29.867,13.653-29.867,29.867V63
		c0,5.12-3.413,8.533-8.533,8.533c-5.12,0-8.533-3.413-8.533-8.533c0-16.213-13.653-29.867-29.867-29.867S122.733,46.787,122.733,63
		v123.733c0,8.533-6.827,17.067-15.36,28.16c-11.947,15.36-27.307,34.987-27.307,60.587v39.253
		c0,81.067,46.08,103.253,46.08,103.253c3.413,1.707,5.12,4.267,5.12,7.68v42.667c0,14.507,11.093,25.6,25.6,25.6h42.667
		c5.12,0,8.533,3.413,8.533,8.533c0,5.12-3.413,8.533-8.533,8.533h-42.667c-23.893,0-42.667-18.773-42.667-42.667v-37.547
		C100.547,422.253,63,391.533,63,314.733V275.48c0-31.573,17.92-54.613,31.573-70.827c4.267-6.827,11.093-14.507,11.093-17.92V63
		c0-25.6,21.333-46.933,46.933-46.933c12.8,0,24.747,5.12,32.427,13.653C191.853,11.8,208.92-1,229.4-1
		c22.187,0,41.813,16.213,46.08,37.547C284.013,29.72,294.253,24.6,306.2,24.6c25.6,0,46.08,19.627,46.933,45.227
		C361.667,63,371.907,58.733,383,58.733c23.04,0,43.52,17.92,46.08,40.96c0,0.853,0.853,1.707,0.853,3.413v183.467
		c0,86.187-6.827,97.28-31.573,128c-3.413,4.267-7.68,9.387-11.093,14.507v41.813C387.267,493.933,372.76,511,353.133,511z"/>
	<path d="M242.2,502.467c0-5.12-3.413-8.533-8.533-8.533c-5.12,0-8.533,3.413-8.533,8.533c0,5.12,3.413,8.533,8.533,8.533
		C238.787,511,242.2,507.587,242.2,502.467"/>
</g>
</svg>