<?xml version="1.0" encoding="iso-8859-1"?>
<!-- Uploaded to: SVG Repo, www.svgrepo.com, Generator: SVG Repo Mixer Tools -->
<svg height="800px" width="800px" version="1.1" id="Layer_1" xmlns="http://www.w3.org/2000/svg" xmlns:xlink="http://www.w3.org/1999/xlink" 
	 viewBox="0 0 512 512" xml:space="preserve">
<g transform="translate(1 1)">
	<path style="fill:#FFE100;" d="M441.142,180.76L441.142,180.76c-6.827-1.707-13.653-0.853-19.627,1.707
		c14.507,5.973,23.893,22.187,20.48,38.4l-15.36,75.093c0,1.707-0.853,2.56-0.853,4.267V357.4c0,29.867-9.387,51.2-17.067,59.733
		c-5.12,5.973-8.533,17.067-10.24,24.747c-7.68,32.427-16.213,60.587-49.493,60.587l0,0c33.28,0,67.413-28.16,75.093-60.587
		c1.707-7.68,5.12-18.773,10.24-24.747c7.68-8.533,17.067-29.867,17.067-59.733v-56.32c0.853-1.707,0.853-2.56,0.853-4.267
		l15.36-75.093C471.862,202.947,459.915,185.027,441.142,180.76"/>
	<path style="fill:#FFFFFF;" d="M180.021,240.493l15.36,23.04L169.781,50.2c-1.707-19.627-1.707-31.573,12.8-34.133
		c-1.707,0-2.56,0-4.267,0c-18.773,0-35.84,12.8-34.133,34.133l23.04,192.853C177.462,246.467,183.435,246.467,180.021,240.493"/>
	<path style="fill:#FFE100;" d="M372.875,185.88c3.413-18.773-5.973-36.693-23.893-40.107l0,0
		c-18.773-3.413-33.28,8.533-36.693,26.453l-11.947,58.88l31.573-189.44c2.56-19.627-15.36-34.133-34.133-34.133
		c-18.773,0-29.867,12.8-34.133,34.133l-25.6,187.733l-25.6-176.64c-3.413-24.747-6.827-36.693-25.6-36.693
		s-18.773,12.8-17.067,34.133l25.6,213.333l-15.36-23.04c-3.413-5.12-72.533-38.4-85.333-33.28c-4.267,0.853-6.827,3.413-10.24,5.12
		c-10.24,6.827-8.533,14.507-8.533,17.067s48.64,52.053,76.8,102.4c0,0,24.747,40.96,51.2,68.267v25.6
		c0,42.667,8.533,76.8,51.2,76.8h68.267c33.28,0,41.813-28.16,49.493-60.587c1.707-7.68,5.12-18.773,10.24-24.747
		c7.68-8.533,17.067-29.867,17.067-59.733v-56.32c0.853-1.707,0.853-2.56,0.853-4.267l15.36-75.093
		c3.413-18.773-8.533-36.693-26.453-40.107l0,0c31.573,6.827-34.133-1.707-40.107,26.453L372.875,185.88z"/>
	<path style="fill:#FFA800;" d="M415.542,180.76L415.542,180.76c-6.827-1.707-13.653-0.853-19.627,1.707
		c14.507,5.973,23.893,22.187,20.48,38.4l-15.36,75.093c0,1.707-0.853,2.56-0.853,4.267V357.4c0,29.867-9.387,51.2-17.067,59.733
		c-5.12,5.973-8.533,17.067-10.24,24.747c-7.68,32.427-16.213,60.587-49.493,60.587l0,0c33.28,0,67.413-28.16,75.093-60.587
		c1.707-7.68,5.12-18.773,10.24-24.747c7.68-8.533,17.067-29.867,17.067-59.733v-56.32c0.853-1.707,0.853-2.56,0.853-4.267
		l15.36-75.093C446.262,202.947,434.315,185.027,415.542,180.76"/>
	<path style="fill:#FFFFFF;" d="M69.088,207.213c-4.267,0.853-6.827,3.413-10.24,5.12c-10.24,6.827-8.533,14.507-8.533,17.067
		s48.64,52.053,76.8,102.4c0,0,24.747,40.96,51.2,68.267v25.6c0,42.667,34.133,76.8,76.8,76.8c-42.667,0-51.2-34.133-51.2-76.8
		v-25.6c-26.453-27.307-51.2-68.267-51.2-68.267c-28.16-50.347-76.8-99.84-76.8-102.4s-1.707-10.24,8.533-17.067
		c3.413-1.707,5.973-4.267,10.24-5.12"/>
	<path d="M220.982,442.733c-0.853,0-0.853,0-1.707,0c-20.48-3.413-29.867-15.36-39.253-26.453c-2.56-3.413-5.12-6.827-8.533-9.387
		c-3.413-3.413-3.413-8.533,0-11.947c3.413-3.413,8.533-3.413,11.947,0c3.413,3.413,6.827,7.68,9.387,11.093
		c7.68,10.24,14.507,18.773,28.16,20.48c4.267,0.853,7.68,5.12,6.827,9.387C228.661,439.32,225.248,442.733,220.982,442.733z"/>
	<path d="M374.582,442.733c-3.413,0-6.827-2.56-8.533-5.973c-0.853-4.267,1.707-9.387,5.973-10.24l4.267-0.853
		c17.067-4.267,19.627-5.12,24.747-11.947c2.56-3.413,8.533-4.267,11.947-1.707c3.413,2.56,4.267,8.533,1.707,11.947
		c-8.533,11.947-17.067,13.653-34.133,18.773h-3.413C376.288,442.733,375.435,442.733,374.582,442.733z"/>
	<path d="M330.208,297.667c-2.56,0-5.973,0-8.533-0.853c-11.093-2.56-20.48-8.533-27.307-17.92
		c-5.973-9.387-8.533-20.48-5.973-32.427l15.36-75.093c2.56-11.093,8.533-20.48,17.92-27.307c9.387-5.973,20.48-8.533,32.427-5.973
		c23.04,4.267,38.4,27.307,33.28,50.347l-15.36,75.093c-2.56,11.093-8.533,20.48-17.92,27.307
		C347.275,295.107,338.741,297.667,330.208,297.667z M345.568,153.453c-5.12,0-10.24,1.707-14.507,4.267
		c-5.973,3.413-9.387,9.387-11.093,16.213l-15.36,75.093c-1.707,6.827,0,13.653,3.413,19.627c3.413,5.973,9.387,9.387,16.213,11.093
		l0,0c6.827,1.707,13.653,0,19.627-3.413c5.973-3.413,9.387-9.387,11.093-16.213l15.36-75.093
		c2.56-13.653-5.973-27.307-19.627-29.867C348.982,154.307,347.275,153.453,345.568,153.453z"/>
	<path d="M393.355,332.653c-2.56,0-5.973,0-8.533-0.853l0,0c-11.093-2.56-20.48-8.533-27.307-17.92
		c-5.973-9.387-8.533-20.48-5.973-32.427l15.36-75.093c4.267-23.04,27.307-38.4,50.347-33.28c23.04,4.267,38.4,27.307,33.28,50.347
		l-15.36,75.093C430.901,318.147,413.835,332.653,393.355,332.653z M408.715,189.293c-11.947,0-23.04,8.533-24.747,20.48
		l-15.36,75.093c-1.707,6.827,0,13.653,3.413,19.627c3.413,5.973,9.387,9.387,16.213,11.093l0,0c6.827,1.707,13.653,0,18.773-3.413
		c5.973-3.413,9.387-9.387,11.093-16.213l15.36-75.093c2.56-13.653-5.973-27.307-19.627-29.867
		C412.128,189.293,410.422,189.293,408.715,189.293z"/>
	<path d="M323.382,511h-68.267c-46.933,0-85.333-38.4-85.333-85.333V403.48c-25.6-28.16-48.64-65.707-50.347-67.413
		c-19.627-35.84-51.2-71.68-65.707-88.747c-11.947-13.653-12.8-14.507-11.947-19.627c0-3.413-0.853-14.507,11.947-23.04
		c4.267-2.56,7.68-5.12,11.947-5.973c30.72-11.947,70.827,2.56,91.307,30.72l-6.827-58.88c-0.853-4.267,2.56-8.533,7.68-9.387
		c4.267-0.853,8.533,2.56,9.387,7.68l11.093,93.867c0.853,4.267-1.707,7.68-5.12,9.387c-3.413,1.707-7.68,0-10.24-3.413
		l-15.36-23.04c-16.213-28.16-52.907-38.4-75.093-30.72c-2.56,0.853-5.12,2.56-8.533,4.267c-5.12,3.413-5.12,5.12-5.12,7.68
		c1.707,1.707,5.12,5.973,7.68,9.387c15.36,17.92,47.787,54.613,68.267,91.307c0,0,24.747,40.107,50.347,66.56
		c1.707,1.707,2.56,3.413,2.56,5.973v25.6c0,37.547,30.72,68.267,68.267,68.267h68.267c29.013,0,60.587-24.747,66.56-53.76
		c2.56-12.8,6.827-23.04,11.947-29.013c5.12-5.973,15.36-24.747,15.36-53.76v-56.32c0-0.853,0-1.707,0.853-2.56v-0.853
		c0-0.853,0.853-1.707,0.853-1.707l15.36-75.093c1.707-6.827,0-13.653-3.413-19.627c-3.413-5.973-9.387-9.387-16.213-11.093
		c-15.36-3.413-29.013,5.12-31.573,19.627c-0.853,4.267-5.12,7.68-10.24,6.827c-4.267-0.853-7.68-5.12-6.827-10.24l3.413-21.333
		c2.56-13.653-5.973-27.307-19.627-30.72c-13.653-2.56-27.307,5.973-29.867,19.627l-11.947,58.88
		c-0.853,4.267-5.12,7.68-10.24,6.827c-4.267-0.853-7.68-5.12-6.827-9.387L323.382,39.96c0.853-6.827-1.707-11.947-5.12-15.36
		c-4.267-5.12-12.8-8.533-20.48-8.533c-5.12,0-20.48,0-25.6,27.307l-25.6,187.733c-0.853,4.267-4.267,7.68-8.533,7.68l0,0
		c-4.267,0-7.68-3.413-8.533-7.68l-25.6-176.64c-3.413-26.453-16.213-29.867-25.6-29.867c-8.533,0-16.213,3.413-20.48,8.533
		c-4.267,4.267-5.973,10.24-5.12,16.213l5.12,42.667c0.853,4.267-2.56,8.533-7.68,9.387c-4.267,0.853-8.533-2.56-9.387-7.68
		l-5.12-42.667c-0.853-11.947,1.707-22.187,9.387-29.867c7.68-8.533,20.48-13.653,33.28-13.653c13.653,0,37.547,5.973,42.667,44.373
		l17.067,116.053l17.067-128C260.235,13.507,275.595-1,297.781-1c12.8,0,25.6,5.973,34.133,14.507
		c6.827,7.68,10.24,18.773,8.533,29.013l-17.067,99.84c8.533-5.12,19.627-7.68,30.72-5.12c19.627,4.267,33.28,20.48,34.133,39.253
		c8.533-5.12,18.773-6.827,29.013-4.267c11.093,2.56,20.48,8.533,27.307,17.92c5.973,9.387,8.533,20.48,5.973,32.427l-15.36,75.093
		c0,1.707-0.853,2.56-0.853,3.413v56.32c0,31.573-10.24,55.467-18.773,65.707c-1.707,2.56-5.12,7.68-8.533,21.333
		C398.475,480.28,360.075,511,323.382,511z"/>
	<path d="M161.248,127c0-5.12-3.413-8.533-8.533-8.533c-5.12,0-8.533,3.413-8.533,8.533s3.413,8.533,8.533,8.533
		C157.835,135.533,161.248,132.12,161.248,127"/>
	<path d="M229.515,340.333c-4.267,0-8.533-3.413-8.533-7.68c-0.853-10.24-5.973-14.507-13.653-18.773
		c-28.16-18.773-39.253-34.987-45.227-45.227c-2.56-4.267-0.853-9.387,3.413-11.947c4.267-2.56,9.387-0.853,11.947,3.413
		c3.413,5.973,11.947,21.333,40.107,40.107c7.68,5.12,19.627,12.8,20.48,32.427C238.048,336.067,234.635,340.333,229.515,340.333
		L229.515,340.333z"/>
</g>
</svg>